<svg width="512" height="512" viewBox="0 0 512 512" fill="none" xmlns="http://www.w3.org/2000/svg">
<path opacity="0.9" d="M142.98 321V272.808L138.948 220.968L154.5 263.784L170.436 298.728H199.236L215.172 263.784L230.532 220.968L226.692 272.808V321H254.148V192.36H217.86L196.932 240.168L184.836 278.376L172.74 240.168L151.812 192.36H115.524V321H142.98ZM335.393 322.728C373.793 322.728 400.097 293.736 400.097 256.488C400.097 219.432 373.793 190.44 335.393 190.44C296.993 190.44 270.689 219.432 270.689 256.488C270.689 293.736 296.993 322.728 335.393 322.728ZM335.393 296.04C311.777 296.04 299.681 279.528 299.681 256.488C299.681 233.64 311.777 216.936 335.393 216.936C359.201 216.936 371.105 233.64 371.105 256.488C371.105 279.528 359.201 296.04 335.393 296.04Z" fill="white"/>
</svg>
